<svg width="28" height="14" viewBox="0 0 28 14" fill="none" xmlns="http://www.w3.org/2000/svg">
<path d="M7.02273 5C6.99242 4.62121 6.85038 4.32576 6.59659 4.11364C6.34659 3.90151 5.96591 3.79545 5.45455 3.79545C5.12879 3.79545 4.86174 3.83523 4.65341 3.91477C4.44886 3.99053 4.29735 4.0947 4.19886 4.22727C4.10038 4.35985 4.04924 4.51136 4.04545 4.68182C4.03788 4.82197 4.0625 4.94886 4.11932 5.0625C4.17992 5.17235 4.27462 5.27273 4.40341 5.36364C4.5322 5.45076 4.69697 5.5303 4.89773 5.60227C5.09849 5.67424 5.33712 5.73864 5.61364 5.79545L6.56818 6C7.21212 6.13636 7.76326 6.31629 8.22159 6.53977C8.67992 6.76326 9.05492 7.02652 9.34659 7.32955C9.63826 7.62879 9.85227 7.96591 9.98864 8.34091C10.1288 8.71591 10.2008 9.125 10.2045 9.56818C10.2008 10.3333 10.0095 10.9811 9.63068 11.5114C9.25189 12.0417 8.71023 12.4451 8.00568 12.7216C7.30492 12.9981 6.46212 13.1364 5.47727 13.1364C4.46591 13.1364 3.58333 12.9867 2.82955 12.6875C2.07955 12.3883 1.49621 11.928 1.07955 11.3068C0.666667 10.6818 0.458333 9.88258 0.454545 8.90909H3.45455C3.47348 9.26515 3.5625 9.56439 3.72159 9.80682C3.88068 10.0492 4.10417 10.233 4.39205 10.358C4.68371 10.483 5.0303 10.5455 5.43182 10.5455C5.76894 10.5455 6.05114 10.5038 6.27841 10.4205C6.50568 10.3371 6.67803 10.2216 6.79545 10.0739C6.91288 9.92614 6.97348 9.75758 6.97727 9.56818C6.97348 9.39015 6.91477 9.23485 6.80114 9.10227C6.69129 8.96591 6.50947 8.8447 6.25568 8.73864C6.00189 8.62879 5.65909 8.52652 5.22727 8.43182L4.06818 8.18182C3.03788 7.95833 2.22538 7.58523 1.63068 7.0625C1.03977 6.53598 0.746212 5.81818 0.75 4.90909C0.746212 4.17045 0.943182 3.52462 1.34091 2.97159C1.74242 2.41477 2.29735 1.98106 3.00568 1.67045C3.7178 1.35985 4.53409 1.20455 5.45455 1.20455C6.39394 1.20455 7.20644 1.36174 7.89205 1.67614C8.57765 1.99053 9.10606 2.43371 9.47727 3.00568C9.85227 3.57386 10.0417 4.23864 10.0455 5H7.02273ZM11.4517 13V4.27273H14.5881V13H11.4517ZM13.0199 3.36364C12.5956 3.36364 12.232 3.22348 11.929 2.94318C11.6259 2.66288 11.4744 2.32576 11.4744 1.93182C11.4744 1.53788 11.6259 1.20076 11.929 0.920454C12.232 0.640151 12.5956 0.5 13.0199 0.5C13.4479 0.5 13.8116 0.640151 14.1108 0.920454C14.4138 1.20076 14.5653 1.53788 14.5653 1.93182C14.5653 2.32576 14.4138 2.66288 14.1108 2.94318C13.8116 3.22348 13.4479 3.36364 13.0199 3.36364ZM27.0043 5.72727H23.7997C23.777 5.46212 23.7164 5.22159 23.6179 5.00568C23.5232 4.78977 23.3906 4.60417 23.2202 4.44886C23.0535 4.28977 22.8509 4.16856 22.6122 4.08523C22.3736 3.99811 22.1027 3.95455 21.7997 3.95455C21.2694 3.95455 20.8205 4.08333 20.4531 4.34091C20.0895 4.59848 19.813 4.9678 19.6236 5.44886C19.438 5.92992 19.3452 6.50758 19.3452 7.18182C19.3452 7.89394 19.4399 8.49053 19.6293 8.97159C19.8224 9.44886 20.1009 9.80871 20.4645 10.0511C20.8281 10.2898 21.2656 10.4091 21.777 10.4091C22.0687 10.4091 22.33 10.3731 22.5611 10.3011C22.7921 10.2254 22.9929 10.1174 23.1634 9.97727C23.3338 9.83712 23.4721 9.66856 23.5781 9.47159C23.688 9.27083 23.7618 9.04545 23.7997 8.79545L27.0043 8.81818C26.9664 9.31061 26.8281 9.8125 26.5895 10.3239C26.3509 10.8314 26.0118 11.3011 25.5724 11.733C25.1368 12.161 24.5971 12.5057 23.9531 12.767C23.3092 13.0284 22.5611 13.1591 21.7088 13.1591C20.6406 13.1591 19.6823 12.9299 18.8338 12.4716C17.9891 12.0133 17.3205 11.339 16.8281 10.4489C16.3395 9.55871 16.0952 8.4697 16.0952 7.18182C16.0952 5.88636 16.3452 4.79545 16.8452 3.90909C17.3452 3.01894 18.0194 2.34659 18.8679 1.89205C19.7164 1.43371 20.6634 1.20455 21.7088 1.20455C22.4437 1.20455 23.1198 1.30492 23.7372 1.50568C24.3546 1.70644 24.8963 2 25.3622 2.38636C25.8281 2.76894 26.2031 3.24053 26.4872 3.80114C26.7713 4.36174 26.9437 5.00379 27.0043 5.72727Z" fill="url(#paint0_linear_1162_3693)"/>
<defs>
<linearGradient id="paint0_linear_1162_3693" x1="14" y1="-2" x2="14" y2="17" gradientUnits="userSpaceOnUse">
<stop offset="0.337898" stop-color="#FD4416"/>
<stop offset="1" stop-color="#FFF709"/>
</linearGradient>
</defs>
</svg>
